# xmcd
#
# Track frame offsets:
#	150
#	16887
#	30857
#	46312
#	65518
#	86583
#	103724
#	120905
#	134138
#	149674
#	167219
#
# Disc length: 2466 seconds
#
# Revision: 5
# Processed by: cddbd v1.5.2PL0 Copyright (c) Steve Scherf et al.
# Submitted via: audiograbber 1.83.01
#
DISCID=9309a00b
DTITLE=Martina McBride - Waking Up Laughing
DYEAR=2007
DGENRE=Country
TTITLE0=If I Had Your Name
TTITLE1=Cry Cry ('Til The Sun Shines)
TTITLE2=Tryin' To Find A Reason
TTITLE3=For These Times
TTITLE4=Anyway
TTITLE5=How I Feel
TTITLE6=I'll Still Be Me
TTITLE7=Beautiful Again
TTITLE8=Everybody Does
TTITLE9=House Of A Thousand Dreams
TTITLE10=Love Land
EXTD=
EXTT0=
EXTT1=
EXTT2=
EXTT3=
EXTT4=
EXTT5=
EXTT6=
EXTT7=
EXTT8=
EXTT9=
EXTT10=
PLAYORDER=
